<?xml version="1.0" encoding="UTF-8" standalone="no"?>
<svg
   xmlns:dc="http://purl.org/dc/elements/1.1/"
   xmlns:cc="http://creativecommons.org/ns#"
   xmlns:rdf="http://www.w3.org/1999/02/22-rdf-syntax-ns#"
   xmlns:svg="http://www.w3.org/2000/svg"
   xmlns="http://www.w3.org/2000/svg"
   xmlns:sodipodi="http://sodipodi.sourceforge.net/DTD/sodipodi-0.dtd"
   xmlns:inkscape="http://www.inkscape.org/namespaces/inkscape"
   enable-background="new 0 0 278.524 276.314"
   viewBox="0 0 55.895373 91.992769"
   version="1.1"
   id="svg3926"
   sodipodi:docname="logo.svg"
   inkscape:version="0.92.0 r15299"
   width="55.89537"
   height="91.992767">
  <metadata
     id="metadata3932">
    <rdf:RDF>
      <cc:Work
         rdf:about="">
        <dc:format>image/svg+xml</dc:format>
        <dc:type
           rdf:resource="http://purl.org/dc/dcmitype/StillImage" />
        <dc:title></dc:title>
      </cc:Work>
    </rdf:RDF>
  </metadata>
  <defs
     id="defs3930" />
  <sodipodi:namedview
     pagecolor="#ffffff"
     bordercolor="#666666"
     borderopacity="1"
     objecttolerance="10"
     gridtolerance="10"
     guidetolerance="10"
     inkscape:pageopacity="0"
     inkscape:pageshadow="2"
     inkscape:window-width="2560"
     inkscape:window-height="1387"
     id="namedview3928"
     showgrid="false"
     showguides="false"
     inkscape:zoom="4.294119"
     inkscape:cx="-9.2057016"
     inkscape:cy="25.620264"
     inkscape:window-x="-8"
     inkscape:window-y="-8"
     inkscape:window-maximized="1"
     inkscape:current-layer="svg3926"
     fit-margin-top="0"
     fit-margin-left="0"
     fit-margin-right="0"
     fit-margin-bottom="0" />
  <g
     id="g4044"
     transform="translate(-34.063901,-4.34375)">
    <path
       id="path3680"
       d="m 43.323,26.41 c 4.832,-0.522 7.683,0.742 10.949,0 4.333,-0.984 7.095,-6.104 14.169,-3.864 0.492,1.87 3.053,1.67 2.576,4.508 3.664,0.845 10.959,-1.942 11.593,1.932 -1.021,2.844 -7.182,0.547 -10.305,1.288 -2.433,2.315 -6.477,8.341 -10.305,5.153 0.938,-2.497 4.997,-1.874 5.796,-4.508 -1.949,-1.486 -6.643,-0.227 -9.661,-0.645 -1.307,0.411 -0.424,3.011 -1.932,3.221 -2.327,0.18 -1.473,-2.821 -2.576,-3.864 -1.894,-0.226 -10.402,1.095 -10.304,-3.221 z m 19.967,0 c 0.669,0.68 4.599,1.33 5.152,0 -1.371,-1.022 -4.102,-2.057 -5.152,0 z"
       inkscape:connector-curvature="0"
       style="fill-rule:evenodd" />
    <path
       id="path3692"
       d="m 51.696,32.851 c -2.497,1.796 -6.864,1.723 -7.085,5.796 -0.066,1.999 2.026,1.838 1.288,4.509 C 35.781,42.077 45.674,25.1 51.696,32.851 Z"
       inkscape:connector-curvature="0"
       style="fill-rule:evenodd" />
    <path
       id="path3696"
       d="m 71.662,48.952 c 2.25,-2.902 9.104,-4.518 7.085,-10.305 -0.485,-1.389 -1.741,-1.305 -3.22,-2.576 -3.975,0.534 -3.781,5.236 -7.085,6.44 -3.663,-11.502 15.331,-12.65 14.169,-0.644 -0.418,4.324 -5.022,9.078 -10.949,7.085 z"
       inkscape:connector-curvature="0"
       style="fill-rule:evenodd" />
    <path
       id="path3698"
       d="m 63.29,50.884 c -2.556,-0.099 -0.94,-2.842 -1.288,-3.864 -1.737,-5.101 -9.121,-6.731 -12.237,0 1.215,2.22 1.904,4.965 3.22,7.084 2.893,0.316 4.826,-0.326 7.085,-0.644 0.962,4.827 -3.903,3.826 -7.729,3.865 -3.477,-3.754 -8.695,-11.089 -3.864,-16.746 1.883,-2.206 6.989,-3.886 10.305,-2.576 0.808,0.319 4.121,3.28 4.509,3.864 0.873,1.32 3.41,6.989 -10e-4,9.017 z"
       inkscape:connector-curvature="0"
       style="fill-rule:evenodd" />
    <path
       id="path3712"
       d="m 46.544,49.596 c -0.561,2.445 -3.251,2.761 -2.577,6.44 -0.232,3.023 3.628,1.954 3.221,5.153 C 37.466,63.257 38.7,46.463 46.544,49.596 Z"
       inkscape:connector-curvature="0"
       style="fill-rule:evenodd" />
    <path
       id="path3714"
       d="m 79.391,49.596 h 3.22 c 2.654,3.521 2.883,12.214 -1.288,14.169 -1.292,0.219 -2.015,-0.132 -1.932,-1.288 -0.937,5.038 -11.541,12.963 -14.169,4.508 10.096,4.291 13.777,-11.206 4.508,-10.949 -3.452,0.096 -4.137,3.5 -7.084,3.865 0.521,-9.956 17.265,-8.51 16.102,1.932 3.84,-1.975 2.564,-9.189 0.643,-12.237 z"
       inkscape:connector-curvature="0"
       style="fill-rule:evenodd" />
    <path
       id="path3716"
       d="m 57.493,61.833 c -4.447,2.852 -12.626,2.758 -12.881,8.373 -0.351,7.739 11.89,7.075 14.169,0 0.323,-2.685 -1.882,-2.841 -1.288,-5.797 8.802,2.02 1.053,13.217 -3.22,14.169 H 47.189 C 35.125,73.45 47.082,53.7 57.493,61.833 Z"
       inkscape:connector-curvature="0"
       style="fill-rule:evenodd" />
    <path
       id="path3718"
       d="m 76.171,71.495 c 1.04,-0.182 1.109,0.608 1.932,0.644 0.675,3.391 1.379,6.606 0.644,9.017 -0.872,2.861 -9.301,9.23 -14.813,6.441 -5.969,-3.021 -4.818,-15.881 5.152,-14.813 -0.314,2.926 -4.758,3.28 -5.152,6.44 -0.357,2.867 1.179,4.782 3.864,6.441 3.778,-1.804 7.719,-3.445 9.017,-7.729 0.306,-2.623 -2.392,-4.371 -0.644,-6.441 z"
       inkscape:connector-curvature="0"
       style="fill-rule:evenodd" />
    <path
       id="path3720"
       d="m 43.967,78.579 c -0.942,3.667 -0.132,5.664 0,9.661 -5.242,1.384 -5.847,-11.226 0,-9.661 z"
       inkscape:connector-curvature="0"
       style="fill-rule:evenodd" />
    <path
       id="path3722"
       d="m 80.679,78.579 h 1.932 c 1.886,4.669 -0.216,9.786 -5.796,9.017 0.145,-4.148 5.308,-3.28 3.864,-9.017 z"
       inkscape:connector-curvature="0"
       style="fill-rule:evenodd" />
    <path
       id="path3724"
       d="m 54.272,79.223 c -1.234,2.463 -1.697,5.354 0,7.729 3.18,0.391 4.368,-1.23 5.797,0.644 -4.681,9.28 -17.016,-7.3 -5.797,-8.373 z"
       inkscape:connector-curvature="0"
       style="fill-rule:evenodd" />
    <path
       id="path3920"
       transform="translate(5.5987341,-45.613216)"
       style="display:inline;fill-rule:evenodd"
       d="m 73.423828,63.558594 c -4.406033,2.323073 -5.732793,2.726984 -0.601562,3.478515 3.801384,1.668353 6.563266,4.803248 7.410156,10.78125 2.277,16.072 -2.49411,41.129801 -1.28711,57.966801 -13.204999,3.379 -33.286578,3.05553 -47.017578,0.64453 1.502,-12.117 0.55411,-30.36999 1.28711,-45.083987 0.326,-6.548 0.498703,-13.819156 3.220703,-18.035156 2.520436,-3.902477 4.160052,-5.625306 8.283203,-6.910156 6.33047,-0.792212 -2.229807,-2.355019 -4.123047,-2.40625 -0.816307,-0.02209 -3.071301,1.909786 -3.824219,2.433593 -6.346662,4.167083 -7.557594,15.010207 -8.066406,26.205078 -0.714,15.723998 0.435997,36.878048 0,46.373048 2.666964,1.46269 29.227284,5.50663 53.720703,0.54883 -0.371547,-10.39187 0.367813,-21.66078 0.382813,-30.17578 0.02651,-15.444613 5.235544,-36.162503 -3.582032,-42.916019 -1.933846,-2.020721 -3.770971,-2.796175 -5.224609,-2.898438 -0.199871,-0.01406 -0.393468,-0.01526 -0.578125,-0.0059 z"
       inkscape:connector-curvature="0" />
    <path
       style="display:inline;fill-rule:evenodd"
       d="m 47.716797,4.34375 c -1.669368,2.193633 -1.572636,5.12722 -1.674205,7.74799 -0.02519,2.085132 0.0061,4.183038 -0.200761,6.255919 0.202817,0.82509 0.820303,1.334094 1.429714,1.699264 1.059008,0.851071 1.680438,0.530784 3.046809,0.739752 9.154479,-0.01068 19.337495,0.391286 28.490297,0.428221 1.559104,-0.204613 2.897315,-1.443873 3.023684,-3.048721 0.08049,-1.474464 0.969397,-2.74648 1.128216,-4.206886 0.373935,-2.528127 1.065783,-5.2937475 -0.04577,-7.7295416 C 81.988766,4.9424901 79.903231,5.5193084 78.470967,5.1512827 68.236276,4.3471386 57.910296,5.817512 47.716797,4.34375 Z m 34.517578,12.128906 c -0.06474,0.19481 0.102074,-0.137437 0,0 z M 54.570312,8.7871094 C 63.242263,8.706188 71.901435,9.2514046 80.566406,9.4960938 79.58837,11.198013 77.350929,11.147356 75.629097,11.15648 72.260976,11.011556 68.898292,10.624035 65.521773,10.814939 61.44602,10.938228 57.349609,11.186705 53.292174,10.641061 52.215512,10.733355 49.92396,9.7185648 50.573108,8.8451468 c 1.332214,-0.030213 2.664674,-0.049618 3.997204,-0.058037 z m -0.443359,3.8320316 c 2.646881,0.05825 5.175875,0.923164 7.761719,1.384765 -2.493402,1.389529 -5.436106,0.581801 -8.089343,0.230743 -1.158741,-0.167956 -2.331816,-0.312769 -3.504407,-0.230743 0.871353,-1.180569 2.466247,-1.410235 3.832031,-1.384765 z m 13.539063,0.816406 c 3.874597,0.06121 7.740882,1.382884 11.613281,0.568359 -0.450078,1.656322 -2.551245,1.538008 -3.923121,1.443309 -1.648582,-0.08408 -3.231157,-0.672071 -4.862731,-0.798777 h -6.673133 c 1.015577,-0.977315 2.490394,-1.217406 3.845704,-1.212891 z m -14.794922,3.144531 c 4.936261,0.444346 9.916828,0.46835 14.814453,1.289063 -3.724397,1.346694 -7.679983,0.09402 -11.482356,-0.124219 -1.496319,-0.270476 -3.439932,0.183572 -4.652268,-0.07007 -0.183951,-0.831193 0.675453,-1.085797 1.320171,-1.094774 z m 28.634765,2.197266 c -0.0525,0.247205 -0.05695,0.02127 0,0 z m -35.347656,0.357422 c -0.01442,0.0689 0.04566,0.0045 0,0 z m 0.289063,0.351562 c -0.02565,0.07549 0.104201,0.02316 0,0 z"
       id="path3920-8"
       inkscape:connector-curvature="0"
       sodipodi:nodetypes="cccccccccccccccccccccccccccccccccccccccccc" />
  </g>
</svg>
